HIERARCHY
ROOT Hips
{
	OFFSET 0.00000 0.00000 0.00000
	CHANNELS 6 Xposition Yposition Zposition Yrotation Zrotation Xrotation 
	JOINT Lumbar
	{
		OFFSET 0 0 0
		CHANNELS 3 Zrotation Xrotation Yrotation
		JOINT Neck
		{
			OFFSET 0.00 0.2701 0.00
			CHANNELS 3 Zrotation Xrotation Yrotation
			End Site
			{
				OFFSET 0.00 0.1379 0.00
			}
		}
		JOINT RightShoulder
		{
			OFFSET 0.0119 0.2289 0.1181
			CHANNELS 3 Zrotation Xrotation Yrotation
			JOINT RightElbow
			{
				OFFSET 0.00 -0.1475 0.00
				CHANNELS 2 Zrotation Yrotation
				JOINT RightWrist
				{
					OFFSET 0.00 -0.1605 0.00
					CHANNELS 2 Zrotation Xrotation
					End Site
					{
						OFFSET 0.0040 -0.1068 0.0006
					}
				}
			}
		}
		JOINT LeftShoulder
		{
			OFFSET 0.0119 0.2289 -0.1181
			CHANNELS 3 Zrotation Xrotation Yrotation
			JOINT LeftElbow
			{
				OFFSET 0.00 -0.1475 0.00
				CHANNELS 2 Zrotation Yrotation
				JOINT LeftWrist
				{
					OFFSET 0.00 -0.1605 0.00
					CHANNELS 2 Zrotation Xrotation
					End Site
					{
						OFFSET 0.0040 -0.1068 -0.0006
					}
				}
			}
		}
	}
	JOINT RightHip
	{
		OFFSET 0.0316 -0.0424 0.0458
		CHANNELS 3 Zrotation Xrotation Yrotation
		JOINT RightKnee
		{
			OFFSET 0.00 -0.2438 0.00
			CHANNELS 1 Zrotation
			JOINT RightAnkle
			{
				OFFSET 0.00 -0.2449 0.00
				CHANNELS 3 Zrotation Xrotation Yrotation
				End Site
				{
					OFFSET 0.1237 -0.0542 0.0051
				}
			}
		}
	}
	JOINT LeftHip
	{
		OFFSET 0.0316 -0.0424 -0.0458
		CHANNELS 3 Zrotation Xrotation Yrotation
		JOINT LeftKnee
		{
			OFFSET 0.00 -0.2438 0.00
			CHANNELS 1 Zrotation
			JOINT LeftAnkle
			{
				OFFSET 0.00 -0.2449 0.00
				CHANNELS 3 Zrotation Xrotation Yrotation
				End Site
				{
					OFFSET 0.1237 -0.0542 -0.0051
				}
			}
		}
	}
}
MOTION
Frames: 11
Frame Time: 0.02
0.61275 -0.01534 -0.46814 871.4209 -28.14872 -4.68306 33.48881 4.04354 -7.58987 -15.56097 5.07618 -0.83079 169.88103 -160.08867 -90.01051 6.275 87.34732 -69.83062 -4.68479 169.87549 134.51787 90.0075 53.29992 -63.77423 -79.05107 22.61209 58.47055 1.3479 -10.86271 -50.61297 -8.63663 -4.75076 -3.27085 38.49644 9.3993 5.53467 -34.81095 -6.55156 0.93267 1.07241
0.60538 -0.01628 -0.47246 872.1219 -28.30019 -4.59131 33.43252 4.18054 -7.38747 -15.50056 5.47025 -0.83079 169.88225 -160.12546 -90.01159 6.61403 83.89624 -72.16048 -7.85204 169.88456 133.98526 90.01331 56.23365 -63.74529 -80.1748 23.24825 58.97464 1.82587 -9.37386 -45.98181 -8.76689 -4.74177 -3.27357 37.84305 9.59043 5.64628 -35.05516 -6.56395 0.86757 1.03814
0.59784 -0.01739 -0.47681 872.77142 -28.49048 -4.44425 33.38884 4.31897 -7.12822 -15.46858 5.80993 -0.83079 169.882 -160.07816 -90.01137 7.01442 79.72359 -73.86175 -11.89026 169.88181 133.22289 90.01155 59.88207 -63.75498 -79.51801 22.86694 59.28643 2.52537 -7.45393 -41.07049 -9.00437 -4.75942 -3.29759 37.20445 9.80803 5.9197 -35.30604 -6.5917 0.79403 0.99986
0.59034 -0.01845 -0.48117 873.45223 -28.66495 -4.31877 33.3427 4.45698 -6.90493 -15.42573 6.17179 -0.83079 169.88186 -160.06737 -90.01128 7.39255 75.99401 -75.79405 -15.41098 169.88138 132.59969 90.01126 63.11492 -63.75306 -79.7032 22.97649 59.67685 3.09501 -5.82476 -36.35146 -9.17734 -4.7557 -3.30583 36.56071 10.00447 6.08875 -35.556 -6.61067 0.72706 0.96476
0.58299 -0.01944 -0.48543 874.09583 -28.83522 -4.20755 33.28339 4.59346 -6.63306 -15.37479 6.54439 -0.83079 169.88204 -160.0613 -90.01144 7.76164 71.75217 -77.91294 -19.44402 169.88248 131.84404 90.01201 66.7274 -63.74506 -79.74429 23.00363 60.09748 3.78426 -3.80917 -31.31617 -9.41413 -4.78749 -3.33761 35.91275 10.23746 6.38176 -35.79482 -6.63618 0.65 0.92465
0.57529 -0.02059 -0.4899 874.80675 -29.0214 -4.05367 33.25411 4.73418 -6.45141 -15.34738 6.88209 -0.83079 169.88194 -160.02714 -90.01138 8.15527 68.41315 -79.51014 -22.61997 169.88167 131.30566 90.01136 69.71463 -63.76168 -79.66013 22.93424 60.41233 4.27899 -2.48257 -26.90223 -9.54644 -4.7544 -3.32716 35.27662 10.40315 6.46019 -36.06092 -6.65312 0.59078 0.89345
0.56673 -0.02218 -0.49488 875.70887 -29.25075 -3.79686 33.3064 4.88029 -6.5288 -15.37616 7.13135 -0.83079 169.88197 -159.92647 -90.01142 8.6414 67.78041 -79.82824 -23.18166 169.8821 131.40435 90.01182 70.87176 -63.70441 -79.7163 22.99941 60.47822 4.17512 -3.26604 -24.11096 -9.33978 -4.51837 -3.18382 34.66656 10.35485 5.87122 -36.38357 -6.63087 0.59047 0.89149
0.55781 -0.02392 -0.50007 876.68201 -29.4927 -3.499 33.38795 5.0319 -6.7002 -15.42791 7.34799 -0.83079 169.88197 -159.80239 -90.01144 9.14123 68.07927 -79.64767 -22.85591 169.88203 131.7298 90.01171 71.36455 -63.68533 -79.69539 22.97367 60.44511 3.86987 -4.73902 -21.98762 -9.02846 -4.21959 -2.99941 34.06989 10.24218 5.06734 -36.7388 -6.60202 0.60691 0.89792
0.54901 -0.02557 -0.50519 877.62825 -29.72282 -3.21902 33.45502 5.18466 -6.83234 -15.47022 7.58345 -0.83079 169.88196 -159.69555 -90.01144 9.60702 67.93073 -79.69721 -22.96011 169.88141 131.96318 90.01083 72.11433 -63.73836 -79.68406 22.8826 60.46193 3.66163 -5.82746 -19.66968 -8.78156 -3.96121 -2.84128 33.46627 10.1729 4.38592 -37.08772 -6.58345 0.61058 0.89806
0.54038 -0.02734 -0.51023 878.5512 -29.98035 -2.93987 33.528 5.32131 -6.94896 -15.50921 7.8015 -0.83079 169.88197 -159.55806 -90.01146 10.19216 67.85468 -79.71056 -22.98641 169.88328 132.14717 90.01359 73.07257 -63.43864 -79.73677 23.19461 60.45455 3.43676 -7.19745 -16.8859 -8.46895 -3.65373 -2.65195 32.85925 10.04395 3.60706 -37.39232 -6.53316 0.63566 0.90845
0.53132 -0.02888 -0.51548 879.53861 -30.183 -2.65059 33.59488 5.49373 -7.11949 -15.56032 8.04709 -0.83079 169.88197 -159.47969 -90.01148 10.53166 67.86242 -79.68762 -22.94762 169.88029 132.48493 90.00913 73.43706 -63.85319 -79.6373 22.67383 60.47222 3.19723 -8.1554 -15.22927 -8.26478 -3.43307 -2.51731 32.27185 10.02481 2.97598 -37.80777 -6.54907 0.62032 0.89961
